<svg xmlns="http://www.w3.org/2000/svg" viewBox="0 0 121.12 58.6"><defs><style>.cls-1{fill:#ea4335;}.cls-2{fill:#4285f4;}.cls-3{fill:#fbbc04;}.cls-4{fill:#34a853;}</style></defs><g id="Layer_2" data-name="Layer 2"><g id="Layer_1-2" data-name="Layer 1"><path class="cls-1" d="M28.84,29.42,48.5,18.06A9.67,9.67,0,1,0,38.83,1.3l-34,19.62Z"/><path class="cls-2" d="M43.66,58.6A9.68,9.68,0,0,0,48.5,40.54l-34-19.62A9.68,9.68,0,0,0,4.84,37.68l34,19.62A9.63,9.63,0,0,0,43.66,58.6Z"/><path class="cls-3" d="M77.46,58.6a9.6,9.6,0,0,0,4.83-1.3l34-19.62L92.59,29l-20,11.53A9.68,9.68,0,0,0,77.46,58.6Z"/><path class="cls-4" d="M111.43,39a9.68,9.68,0,0,0,4.85-18.06L82.29,1.3a9.67,9.67,0,1,0-9.67,16.76l34,19.62A9.66,9.66,0,0,0,111.43,39Z"/></g></g></svg>